<?xml version="1.0" encoding="utf-8"?>
<!DOCTYPE svg PUBLIC "-//W3C//DTD SVG 1.0//EN" "http://www.w3.org/TR/2001/REC-SVG-20010904/DTD/svg10.dtd">
<svg version="1.0" xmlns="http://www.w3.org/2000/svg" width="40px" viewBox="0 0 274 263" preserveAspectRatio="xMidYMid meet">
 <g fill="#FFAF29">
  <path d="M 41 209.2 c 0 -33.4 0.8 -44.4 3.9 -53.5 4.1 -11.8 17.2 -26.5 28.6 -32.1 13 -6.4 8.2 -6 89.3 -6.4 l 74.2 -0.3 0 14.1 0 14 -67.3 0 c -56.3 0 -68.2 0.2 -73 1.5 -10.1 2.6 -18.1 9.2 -23.2 19.2 l -3 5.8 -0.3 34.8 -0.3 34.7 -14.4 0 -14.5 0 0 -31.8 z "/>
  <path d="M 42.7 61.2 c -1.5 -0.3 -1.7 -1.9 -1.7 -13.1 0 -8.5 0.4 -13.1 1.2 -13.9 0.9 -0.9 24 -1.2 97.8 -1.2 l 96.7 0 0.6 13.3 c 0.3 7.2 0.2 13.6 -0.3 14.1 -0.8 0.8 -190.3 1.6 -194.3 0.8 z "/>
 </g>
 <g fill="transparent">
  <path d="M 0 131.5 l 0 -131.5 137 0 137 0 0 131.5 0 131.5 -137 0 -137 0 0 -131.5 z  m 67.2 71.8 l 0.3 -34.8 3 -5.8 c 5.1 -10 13.1 -16.6 23.2 -19.2 4.8 -1.3 16.7 -1.5 73 -1.5 l 67.3 0 0 -11 0 -11.1 -71.2 0.3 c -77.8 0.4 -73.3 0.1 -86.3 6.4 -7.2 3.5 -17.3 12.7 -22.7 20.7 -8.3 12.3 -9.8 21.6 -9.8 61.9 l 0 28.8 11.5 0 11.4 0 0.3 -34.7 z  m 166.6 -145.9 c 0.4 -0.5 0.6 -5.5 0.4 -11.1 l -0.3 -10.3 -93.8 0 c -71.5 0 -94 0.3 -94.9 1.2 -0.8 0.8 -1.2 4.7 -1.2 10.9 0 8.3 0.2 9.8 1.7 10.1 3.9 0.7 187.5 -0.1 188.1 -0.8 z "/>
 </g>
</svg>